<svg height="496pt" viewBox="0 0 496 496" width="496pt" xmlns="http://www.w3.org/2000/svg"><path d="m496 418.113281c0-24.808593-16.648438-46.921875-40.480469-53.808593l-63.519531-18.320313v-16.105469c6.160156-4.941406 11.351562-11.015625 15.34375-17.878906h.65625c22.054688 0 40-17.945312 40-40v-64c0-52.9375-43.0625-96-96-96-52.761719 0-95.695312 42.792969-95.976562 95.496094-10.3125-12.992188-16.023438-29.121094-16.023438-46.144532v-65.351562c0-52.9375-43.0625-96-96-96s-96 43.0625-96 96v65.351562c0 25.976563-13.839844 50.425782-36.121094 63.792969l-7.191406 4.3125 4.65625 6.984375c.488281.726563 8.207031 12.039063 21.160156 19.941406-18.335937 9.464844-30.503906 28.578126-30.503906 49.730469v45.886719h96v32h96v-32h96v-40.808594c2.585938.527344 5.265625.808594 8 .808594h.65625c3.984375 6.863281 9.183594 12.9375 15.34375 17.878906v16.105469l-63.519531 18.320313c-23.832031 6.878906-40.480469 29-40.480469 53.808593v45.886719h96v32h96v-32h96zm-81.878906-123c1.183594-4.855469 1.878906-9.898437 1.878906-15.113281v-30.527344c9.289062 3.3125 16 12.113282 16 22.527344 0 11.105469-7.617188 20.382812-17.878906 23.113281zm-62.121094-167.113281c44.113281 0 80 35.886719 80 80v32.144531c-5.207031-3.9375-11.351562-6.703125-18.089844-7.703125l-.972656-2.9375c-4.289062-12.863281-16.28125-21.503906-29.839844-21.503906-6.234375 0-12.265625 1.832031-17.441406 5.28125-8.296875 5.527344-19.015625 5.527344-27.3125 0-5.175781-3.449219-11.207031-5.28125-17.441406-5.28125-13.558594 0-25.542969 8.640625-29.832032 21.503906l-.972656 2.9375c-6.746094 1-12.882812 3.773438-18.089844 7.703125v-32.144531c-.007812-44.113281 35.878907-80 79.992188-80zm-96 102.199219v25.417969c-2.742188-1.304688-5.558594-2.472657-8.480469-3.3125l-63.519531-18.320313v-16.105469c6.160156-4.941406 11.351562-11.015625 15.34375-17.878906h.65625c10.992188 0 20.960938-4.464844 28.199219-11.671875 5.03125 16.167969 14.554687 30.648437 27.800781 41.871094zm-88 6.992187-24 30-24-30v-9.902344c7.414062 3.015626 15.511719 4.710938 24 4.710938s16.585938-1.695312 24-4.710938zm-72-101.191406v-16.457031c18.703125-2.117188 36.097656-11.574219 48-26.296875 11.902344 14.722656 29.296875 24.179687 48 26.296875v48.457031c0 26.472656-21.527344 48-48 48s-48-21.527344-48-48zm110.121094 47.113281c1.183594-4.855469 1.878906-9.898437 1.878906-15.113281v-30.527344c9.289062 3.3125 16 12.113282 16 22.527344 0 11.105469-7.617188 20.382812-17.878906 23.113281zm-62.121094-167.113281c44.113281 0 80 35.886719 80 80v32.191406c-4.671875-3.535156-10.054688-6.175781-16-7.382812v-16.808594h-8c-17.527344 0-34.28125-8.375-44.800781-22.40625l-11.199219-14.921875-11.199219 14.929687c-10.519531 14.023438-27.273437 22.398438-44.800781 22.398438h-8v16.808594c-5.945312 1.207031-11.328125 3.847656-16 7.382812v-32.191406c0-44.113281 35.886719-80 80-80zm-64 121.472656v30.527344c0 5.214844.695312 10.257812 1.878906 15.113281-10.261718-2.730469-17.878906-12.007812-17.878906-23.113281 0-10.414062 6.710938-19.214844 16-22.527344zm-20.296875 50.765625c7.25 7.265625 17.257813 11.761719 28.296875 11.761719h.65625c3.984375 6.863281 9.183594 12.9375 15.34375 17.878906v16.105469l-48.464844 13.976563c-12.136718-.207032-22.085937-8.3125-27.757812-14.257813 15.230468-11.4375 26.277344-27.496094 31.925781-45.464844zm4.296875 147.761719v-32h-16v32h-32v-29.886719c0-17.714843 11.886719-33.511719 28.910156-38.433593l64.167969-18.511719 18.273437 22.832031h-31.351562v64zm112 32h-64v-80h64zm96-61.886719v29.886719h-32v-32h-16v32h-32v-64h-31.351562l18.273437-22.832031 64.175781 18.511719c4.75 1.367187 9.214844 3.65625 13.140625 6.648437.707031 11.960937 6.625 22.457031 15.59375 29.320313.046875.824218.167969 1.632812.167969 2.464843zm0-34.113281c0-10.414062 6.710938-19.214844 16-22.527344v30.527344c0 5.214844.695312 10.257812 1.878906 15.113281-10.261718-2.730469-17.878906-12.007812-17.878906-23.113281zm32 8v-38.703125l2.246094-6.738281c2.105468-6.320313 8-10.558594 14.65625-10.558594 3.066406 0 6.027344.894531 8.570312 2.59375 13.6875 9.125 31.367188 9.125 45.0625 0 2.535156-1.699219 5.496094-2.59375 8.5625-2.59375 6.664063 0 12.550782 4.238281 14.65625 10.558594l2.246094 6.738281v38.703125c0 26.472656-21.527344 48-48 48s-48-21.527344-48-48zm48 64c8.488281 0 16.585938-1.695312 24-4.710938v9.902344l-24 30-24-30v-9.902344c7.414062 3.015626 15.511719 4.710938 24 4.710938zm-80 104v-32h-16v32h-32v-29.886719c0-17.714843 11.886719-33.511719 28.910156-38.433593l64.167969-18.511719 18.273437 22.832031h-31.351562v64zm112 32h-64v-80h64zm96-32h-32v-32h-16v32h-32v-64h-31.351562l18.273437-22.832031 64.167969 18.511719c17.023437 4.914062 28.910156 20.71875 28.910156 38.433593zm0 0"/><path d="m336 416h32v16h-32zm0 0"/><path d="m336 448h32v16h-32zm0 0"/><path d="m128 304h32v16h-32zm0 0"/><path d="m128 336h32v16h-32zm0 0"/></svg>